<svg xmlns="http://www.w3.org/2000/svg" viewBox="0 0 542.71 421.62"><defs><style>.cls-1{fill:none;stroke:#fff;stroke-linecap:round;stroke-linejoin:round;stroke-width:11px;}.cls-2{fill:#fff;}</style></defs><g id="Capa_2" data-name="Capa 2"><g id="Capa_1-2" data-name="Capa 1"><path class="cls-1" d="M218.76,262.8s.12,9.91-8.45,19.31c-13.94,15.29-37.9,16.18-53.2,2.26a51.83,51.83,0,0,1-3.88-3.94"/><path class="cls-1" d="M303.27,70.51s37.86,119.76-48.47,156.25a102,102,0,0,1-29.37,7.35c-23.24,2.38-91.36,12.66-116.89,52.6,0,0-16.69,21.46-32.59-7.16,0,0-23.05-39.74-22.26-132.74,0,0-4.57-173,216.11-136.17C277.93,12,286,13.74,294,15.76c34.45,8.73,149.45,37.76,175.32,42.85a16.74,16.74,0,0,1,12.19,9.62c3.33,7.7,4.3,21.22-7.33,43.61,0,0-73.92,139.1-168.5,107.3"/><path class="cls-2" d="M39.68,420.34H0V343.87H9v68.37H39.68Z"/><path class="cls-2" d="M60.37,420.34h-9V343.87h9Z"/><path class="cls-2" d="M137.32,343.87,109,420.34H99.13L71.4,343.87h10l21.17,60.63a36.19,36.19,0,0,1,1.54,6.78h.22a32.72,32.72,0,0,1,1.76-6.88l21.59-60.53Z"/><path class="cls-2" d="M188.83,420.34H148.3V343.87h38.82V352H157.26v25.43h27.62v8.06H157.26v26.77h31.57Z"/><path class="cls-2" d="M258.37,420.34H247.7L234.9,398.9a47.13,47.13,0,0,0-3.41-5.09,19.74,19.74,0,0,0-3.38-3.44,11.52,11.52,0,0,0-3.74-1.94,15.25,15.25,0,0,0-4.5-.62h-7.36v32.53h-9V343.87h22.82a32.81,32.81,0,0,1,9.26,1.25,20.74,20.74,0,0,1,7.35,3.82,17.63,17.63,0,0,1,4.88,6.37,21,21,0,0,1,1.76,8.93,21.47,21.47,0,0,1-1.2,7.33,19.16,19.16,0,0,1-3.41,5.95,20.65,20.65,0,0,1-5.33,4.45,27.26,27.26,0,0,1-7,2.86V385A16.14,16.14,0,0,1,236,387a18,18,0,0,1,2.69,2.58,34.76,34.76,0,0,1,2.53,3.39q1.26,1.89,2.8,4.4ZM212.51,352v27.73h12.16a18.3,18.3,0,0,0,6.21-1,14.35,14.35,0,0,0,4.93-2.9,13.09,13.09,0,0,0,3.25-4.64,15.41,15.41,0,0,0,1.18-6.16q0-6.14-4-9.57T224.77,352Z"/><path class="cls-2" d="M350.84,417.14q-8.49,4.49-21.12,4.48-16.32,0-26.13-10.5t-9.81-27.57q0-18.35,11-29.65t28-11.31q10.88,0,18,3.15v9.54a36.64,36.64,0,0,0-18.13-4.58q-13.18,0-21.36,8.8T303.16,383q0,14,7.66,22.27t20.07,8.29q11.52,0,19.95-5.12Z"/><path class="cls-2" d="M425.6,420.34h-9.92l-8.1-21.44H375.15l-7.62,21.44h-10l29.33-76.47h9.27Zm-21-29.49-12-32.58a31.28,31.28,0,0,1-1.17-5.12h-.21a29,29,0,0,1-1.23,5.12l-11.89,32.58Z"/><path class="cls-2" d="M491.67,420.34H481l-12.8-21.44a47.13,47.13,0,0,0-3.41-5.09,20.14,20.14,0,0,0-3.39-3.44,11.58,11.58,0,0,0-3.73-1.94,15.37,15.37,0,0,0-4.51-.62h-7.36v32.53h-9V343.87h22.83a32.74,32.74,0,0,1,9.25,1.25,20.71,20.71,0,0,1,7.36,3.82,17.74,17.74,0,0,1,4.88,6.37,21.17,21.17,0,0,1,1.76,8.93,21.47,21.47,0,0,1-1.2,7.33,19,19,0,0,1-3.42,5.95A20.48,20.48,0,0,1,473,382a27.33,27.33,0,0,1-7,2.86V385A16,16,0,0,1,469.3,387a18.59,18.59,0,0,1,2.7,2.58,36.46,36.46,0,0,1,2.53,3.39c.83,1.26,1.77,2.73,2.8,4.4ZM445.81,352v27.73H458a18.3,18.3,0,0,0,6.21-1,14.4,14.4,0,0,0,4.94-2.9,13.22,13.22,0,0,0,3.25-4.64,15.59,15.59,0,0,0,1.17-6.16q0-6.14-4-9.57T458.08,352Z"/><path class="cls-2" d="M542.71,420.34H502.18V343.87H541V352H511.14v25.43h27.62v8.06H511.14v26.77h31.57Z"/></g></g></svg>